<svg xmlns="http://www.w3.org/2000/svg" xmlns:xlink="http://www.w3.org/1999/xlink" width="95" zoomAndPan="magnify" viewBox="0 0 71.25 30.000001" height="40" preserveAspectRatio="xMidYMid meet" version="1.0"><defs><clipPath id="9a3f9065e7"><path d="M 0.785156 0 L 69.738281 0 L 69.738281 29.03125 L 0.785156 29.03125 Z M 0.785156 0 " clip-rule="nonzero"/></clipPath><clipPath id="df68f9c755"><path d="M 2.238281 8.324219 L 15 8.324219 L 15 20.664062 L 2.238281 20.664062 Z M 2.238281 8.324219 " clip-rule="nonzero"/></clipPath><clipPath id="226bddcb3f"><path d="M 15 8.324219 L 29 8.324219 L 29 20.664062 L 15 20.664062 Z M 15 8.324219 " clip-rule="nonzero"/></clipPath><clipPath id="deca74395b"><path d="M 29 8.324219 L 42 8.324219 L 42 20.664062 L 29 20.664062 Z M 29 8.324219 " clip-rule="nonzero"/></clipPath><clipPath id="77209d0ec0"><path d="M 42 8.324219 L 55 8.324219 L 55 20.664062 L 42 20.664062 Z M 42 8.324219 " clip-rule="nonzero"/></clipPath><clipPath id="2bc64ffb1d"><path d="M 55 8.324219 L 68.285156 8.324219 L 68.285156 20.664062 L 55 20.664062 Z M 55 8.324219 " clip-rule="nonzero"/></clipPath><clipPath id="ebb755116f"><path d="M 2.238281 8.324219 L 15 8.324219 L 15 20 L 2.238281 20 Z M 2.238281 8.324219 " clip-rule="nonzero"/></clipPath><clipPath id="a0a2a7c0d4"><path d="M 15 8.324219 L 28 8.324219 L 28 20 L 15 20 Z M 15 8.324219 " clip-rule="nonzero"/></clipPath><clipPath id="2750784942"><path d="M 29 8.324219 L 41 8.324219 L 41 20 L 29 20 Z M 29 8.324219 " clip-rule="nonzero"/></clipPath><clipPath id="6a027495af"><path d="M 42 8.324219 L 55 8.324219 L 55 20 L 42 20 Z M 42 8.324219 " clip-rule="nonzero"/></clipPath></defs><g clip-path="url(#9a3f9065e7)"><path fill="none" d="M 0.785156 0 L 70.464844 0 L 70.464844 36.289062 L 0.785156 36.289062 Z M 0.785156 0 " fill-opacity="1" fill-rule="nonzero"/><path fill="none" d="M 0.785156 0 L 69.738281 0 L 69.738281 29.03125 L 0.785156 29.03125 Z M 0.785156 0 " fill-opacity="1" fill-rule="nonzero"/><path fill="none" d="M 0.785156 0 L 69.738281 0 L 69.738281 29.03125 L 0.785156 29.03125 Z M 0.785156 0 " fill-opacity="1" fill-rule="nonzero"/></g><g clip-path="url(#df68f9c755)"><path fill="#ffbe0d" d="M 12.691406 15.839844 C 12.484375 16.042969 12.386719 16.339844 12.4375 16.628906 L 12.910156 19.371094 C 13.035156 20.09375 12.269531 20.648438 11.617188 20.304688 L 9.144531 19.007812 C 8.882812 18.875 8.574219 18.875 8.3125 19.007812 L 5.839844 20.304688 C 5.253906 20.613281 4.574219 20.195312 4.539062 19.582031 C 4.53125 19.511719 4.535156 19.441406 4.550781 19.371094 L 5.023438 16.628906 C 5.070312 16.339844 4.972656 16.042969 4.765625 15.839844 L 2.765625 13.898438 C 2.234375 13.382812 2.527344 12.488281 3.257812 12.382812 L 6.023438 11.984375 C 6.3125 11.941406 6.5625 11.761719 6.691406 11.5 L 7.929688 9.003906 C 8.257812 8.34375 9.199219 8.34375 9.527344 9.003906 L 10.761719 11.5 C 10.894531 11.761719 11.144531 11.941406 11.433594 11.984375 L 14.199219 12.382812 C 14.269531 12.394531 14.335938 12.410156 14.394531 12.433594 C 14.980469 12.65625 15.171875 13.433594 14.691406 13.898438 Z M 12.691406 15.839844 " fill-opacity="1" fill-rule="nonzero"/></g><g clip-path="url(#226bddcb3f)"><path fill="#ffbe0d" d="M 25.972656 15.839844 C 25.761719 16.042969 25.664062 16.339844 25.714844 16.628906 L 26.1875 19.371094 C 26.3125 20.09375 25.546875 20.648438 24.894531 20.304688 L 22.421875 19.007812 C 22.164062 18.875 21.851562 18.875 21.59375 19.007812 L 19.121094 20.304688 C 18.53125 20.613281 17.855469 20.195312 17.816406 19.582031 C 17.8125 19.511719 17.816406 19.441406 17.828125 19.371094 L 18.300781 16.628906 C 18.347656 16.339844 18.253906 16.042969 18.042969 15.839844 L 16.042969 13.898438 C 15.511719 13.382812 15.808594 12.488281 16.539062 12.382812 L 19.300781 11.984375 C 19.589844 11.941406 19.839844 11.761719 19.972656 11.5 L 21.207031 9.003906 C 21.535156 8.34375 22.476562 8.34375 22.804688 9.003906 L 24.042969 11.5 C 24.171875 11.761719 24.421875 11.941406 24.710938 11.984375 L 27.476562 12.382812 C 27.546875 12.394531 27.613281 12.410156 27.675781 12.433594 C 28.257812 12.65625 28.449219 13.433594 27.972656 13.898438 Z M 25.972656 15.839844 " fill-opacity="1" fill-rule="nonzero"/></g><g clip-path="url(#deca74395b)"><path fill="#ffbe0d" d="M 39.25 15.839844 C 39.039062 16.042969 38.945312 16.339844 38.992188 16.628906 L 39.464844 19.371094 C 39.589844 20.09375 38.824219 20.648438 38.171875 20.304688 L 35.699219 19.007812 C 35.441406 18.875 35.128906 18.875 34.871094 19.007812 L 32.398438 20.304688 C 31.808594 20.613281 31.132812 20.195312 31.09375 19.582031 C 31.089844 19.511719 31.09375 19.441406 31.105469 19.371094 L 31.578125 16.628906 C 31.625 16.339844 31.53125 16.042969 31.320312 15.839844 L 29.320312 13.898438 C 28.792969 13.382812 29.085938 12.488281 29.816406 12.382812 L 32.578125 11.984375 C 32.871094 11.941406 33.121094 11.761719 33.25 11.5 L 34.488281 9.003906 C 34.8125 8.34375 35.757812 8.34375 36.085938 9.003906 L 37.320312 11.5 C 37.449219 11.761719 37.699219 11.941406 37.988281 11.984375 L 40.753906 12.382812 C 40.824219 12.394531 40.890625 12.410156 40.953125 12.433594 C 41.535156 12.65625 41.726562 13.433594 41.25 13.898438 Z M 39.25 15.839844 " fill-opacity="1" fill-rule="nonzero"/></g><g clip-path="url(#77209d0ec0)"><path fill="#ffbe0d" d="M 52.527344 15.839844 C 52.320312 16.042969 52.222656 16.339844 52.273438 16.628906 L 52.746094 19.371094 C 52.871094 20.09375 52.105469 20.648438 51.453125 20.304688 L 48.980469 19.007812 C 48.71875 18.875 48.410156 18.875 48.148438 19.007812 L 45.675781 20.304688 C 45.089844 20.613281 44.410156 20.195312 44.375 19.582031 C 44.367188 19.511719 44.371094 19.441406 44.382812 19.371094 L 44.855469 16.628906 C 44.90625 16.339844 44.808594 16.042969 44.601562 15.839844 L 42.601562 13.898438 C 42.070312 13.382812 42.363281 12.488281 43.09375 12.382812 L 45.859375 11.984375 C 46.148438 11.941406 46.398438 11.761719 46.527344 11.5 L 47.765625 9.003906 C 48.09375 8.34375 49.035156 8.34375 49.363281 9.003906 L 50.597656 11.5 C 50.730469 11.761719 50.980469 11.941406 51.269531 11.984375 L 54.035156 12.382812 C 54.105469 12.394531 54.171875 12.410156 54.230469 12.433594 C 54.816406 12.65625 55.007812 13.433594 54.527344 13.898438 Z M 52.527344 15.839844 " fill-opacity="1" fill-rule="nonzero"/></g><g clip-path="url(#2bc64ffb1d)"><path fill="#ffbe0d" d="M 61.84375 9.117188 C 61.894531 9.117188 62.023438 9.132812 62.09375 9.273438 L 63.332031 11.769531 C 63.550781 12.210938 63.972656 12.515625 64.460938 12.585938 L 67.222656 12.984375 C 67.253906 12.992188 67.273438 12.996094 67.285156 13 C 67.285156 13 67.289062 13.003906 67.292969 13.003906 C 67.378906 13.035156 67.441406 13.113281 67.460938 13.207031 C 67.476562 13.273438 67.472656 13.375 67.378906 13.464844 L 65.382812 15.40625 C 65.027344 15.75 64.863281 16.246094 64.949219 16.730469 L 65.421875 19.472656 C 65.4375 19.558594 65.417969 19.632812 65.363281 19.695312 C 65.308594 19.761719 65.226562 19.800781 65.144531 19.800781 C 65.101562 19.800781 65.058594 19.789062 65.015625 19.765625 L 62.539062 18.472656 C 62.328125 18.359375 62.085938 18.300781 61.84375 18.300781 C 61.601562 18.300781 61.359375 18.359375 61.144531 18.472656 L 58.671875 19.769531 C 58.628906 19.792969 58.585938 19.800781 58.539062 19.800781 C 58.414062 19.800781 58.269531 19.699219 58.261719 19.546875 C 58.261719 19.539062 58.261719 19.535156 58.261719 19.527344 C 58.257812 19.523438 58.257812 19.503906 58.265625 19.472656 L 58.738281 16.730469 C 58.820312 16.246094 58.65625 15.75 58.304688 15.40625 L 56.304688 13.464844 C 56.195312 13.359375 56.210938 13.238281 56.234375 13.175781 C 56.25 13.128906 56.304688 13.007812 56.460938 12.984375 L 59.222656 12.585938 C 59.710938 12.515625 60.132812 12.207031 60.351562 11.769531 L 61.589844 9.269531 C 61.660156 9.136719 61.777344 9.117188 61.84375 9.117188 M 61.84375 8.507812 C 61.523438 8.507812 61.207031 8.671875 61.042969 9.003906 L 59.804688 11.5 C 59.675781 11.761719 59.425781 11.941406 59.136719 11.984375 L 56.375 12.382812 C 55.640625 12.488281 55.347656 13.382812 55.878906 13.898438 L 57.878906 15.839844 C 58.089844 16.042969 58.183594 16.339844 58.136719 16.628906 L 57.664062 19.371094 C 57.652344 19.441406 57.648438 19.511719 57.652344 19.582031 C 57.679688 20.054688 58.085938 20.410156 58.542969 20.410156 C 58.679688 20.410156 58.820312 20.375 58.957031 20.304688 L 61.429688 19.007812 C 61.558594 18.941406 61.703125 18.90625 61.84375 18.90625 C 61.984375 18.90625 62.128906 18.941406 62.257812 19.007812 L 64.730469 20.304688 C 64.867188 20.375 65.007812 20.410156 65.144531 20.410156 C 65.664062 20.410156 66.121094 19.941406 66.023438 19.371094 L 65.550781 16.625 C 65.5 16.335938 65.597656 16.042969 65.808594 15.839844 L 67.804688 13.898438 C 68.285156 13.433594 68.09375 12.65625 67.511719 12.433594 C 67.449219 12.410156 67.382812 12.394531 67.3125 12.382812 L 64.546875 11.984375 C 64.257812 11.941406 64.007812 11.761719 63.878906 11.5 L 62.640625 9 C 62.476562 8.671875 62.160156 8.507812 61.84375 8.507812 Z M 61.84375 8.507812 " fill-opacity="1" fill-rule="nonzero"/></g><g clip-path="url(#ebb755116f)"><path fill="#ffce00" d="M 14.398438 12.433594 C 12.207031 15.957031 8.6875 18.570312 4.539062 19.582031 C 4.53125 19.511719 4.535156 19.441406 4.550781 19.371094 L 5.023438 16.628906 C 5.070312 16.339844 4.972656 16.042969 4.765625 15.839844 L 2.765625 13.898438 C 2.234375 13.382812 2.527344 12.488281 3.257812 12.382812 L 6.023438 11.984375 C 6.3125 11.941406 6.5625 11.761719 6.691406 11.5 L 7.929688 9.003906 C 8.257812 8.34375 9.199219 8.34375 9.527344 9.003906 L 10.761719 11.5 C 10.894531 11.761719 11.144531 11.941406 11.433594 11.984375 L 14.199219 12.382812 C 14.269531 12.394531 14.335938 12.410156 14.398438 12.433594 Z M 14.398438 12.433594 " fill-opacity="1" fill-rule="nonzero"/></g><g clip-path="url(#a0a2a7c0d4)"><path fill="#ffce00" d="M 27.675781 12.433594 C 25.488281 15.957031 21.96875 18.570312 17.816406 19.582031 C 17.8125 19.511719 17.816406 19.441406 17.828125 19.371094 L 18.300781 16.628906 C 18.347656 16.339844 18.253906 16.042969 18.042969 15.839844 L 16.042969 13.898438 C 15.511719 13.382812 15.808594 12.488281 16.539062 12.382812 L 19.300781 11.984375 C 19.589844 11.941406 19.839844 11.761719 19.972656 11.5 L 21.207031 9.003906 C 21.535156 8.34375 22.476562 8.34375 22.804688 9.003906 L 24.042969 11.5 C 24.171875 11.761719 24.421875 11.941406 24.710938 11.984375 L 27.476562 12.382812 C 27.546875 12.394531 27.613281 12.410156 27.675781 12.433594 Z M 27.675781 12.433594 " fill-opacity="1" fill-rule="nonzero"/></g><g clip-path="url(#2750784942)"><path fill="#ffce00" d="M 40.953125 12.433594 C 38.765625 15.957031 35.246094 18.570312 31.09375 19.582031 C 31.089844 19.511719 31.09375 19.441406 31.105469 19.371094 L 31.578125 16.628906 C 31.625 16.339844 31.53125 16.042969 31.320312 15.839844 L 29.320312 13.898438 C 28.792969 13.382812 29.085938 12.488281 29.816406 12.382812 L 32.578125 11.984375 C 32.871094 11.941406 33.121094 11.761719 33.25 11.5 L 34.488281 9.003906 C 34.8125 8.34375 35.757812 8.34375 36.085938 9.003906 L 37.320312 11.5 C 37.449219 11.761719 37.699219 11.941406 37.988281 11.984375 L 40.753906 12.382812 C 40.828125 12.394531 40.890625 12.410156 40.953125 12.433594 Z M 40.953125 12.433594 " fill-opacity="1" fill-rule="nonzero"/></g><g clip-path="url(#6a027495af)"><path fill="#ffce00" d="M 54.230469 12.433594 C 52.042969 15.957031 48.523438 18.570312 44.375 19.582031 C 44.367188 19.511719 44.371094 19.441406 44.382812 19.371094 L 44.855469 16.628906 C 44.90625 16.339844 44.808594 16.042969 44.601562 15.839844 L 42.597656 13.898438 C 42.070312 13.382812 42.363281 12.488281 43.09375 12.382812 L 45.855469 11.984375 C 46.148438 11.941406 46.398438 11.761719 46.527344 11.5 L 47.765625 9.003906 C 48.089844 8.34375 49.035156 8.34375 49.363281 9.003906 L 50.597656 11.5 C 50.726562 11.761719 50.976562 11.941406 51.269531 11.984375 L 54.035156 12.382812 C 54.105469 12.394531 54.171875 12.410156 54.230469 12.433594 Z M 54.230469 12.433594 " fill-opacity="1" fill-rule="nonzero"/></g></svg>